<svg width="20" height="18" viewBox="0 0 20 18" fill="none" xmlns="http://www.w3.org/2000/svg">
<path d="M17.0392 15.339H14.0775V11.1623C14.0775 10.1663 14.055 8.8845 12.5342 8.8845C10.99 8.8845 10.7542 9.96825 10.7542 11.0887V15.339H7.7925V6.75H10.6375V7.92075H10.6758C11.0733 7.24575 12.04 6.53325 13.4842 6.53325C16.485 6.53325 17.04 8.31075 17.04 10.6245V15.339H17.0392ZM4.4475 5.57475C3.49417 5.57475 2.72833 4.88025 2.72833 4.026C2.72833 3.1725 3.495 2.47875 4.4475 2.47875C5.3975 2.47875 6.1675 3.1725 6.1675 4.026C6.1675 4.88025 5.39667 5.57475 4.4475 5.57475ZM5.9325 15.339H2.9625V6.75H5.9325V15.339ZM18.5208 0H1.47583C0.66 0 0 0.5805 0 1.29675V16.7033C0 17.4202 0.66 18 1.47583 18H18.5183C19.3333 18 20 17.4202 20 16.7033V1.29675C20 0.5805 19.3333 0 18.5183 0H18.5208Z" fill="white"/>
</svg>
